<?xml version="1.0" encoding="UTF-8"?>
<svg version="1.1" xmlns="http://www.w3.org/2000/svg" width="313" height="313">
<path d="M0 0 C0.495 0.99 0.495 0.99 1 2 C1.66 2 2.32 2 3 2 C4.34266758 3.99374561 5.67432454 5.99491587 7 8 C13.79266649 15.22838029 21.33622996 20.29375455 30 25 C30.99 25.66 31.98 26.32 33 27 C33 27.66 33 28.32 33 29 C33.99 28.67 34.98 28.34 36 28 C38.51698632 29.07254877 40.66805545 30.54803452 43 32 C43 32.66 43 33.32 43 34 C43.99 33.67 44.98 33.34 46 33 C46.33 33.99 46.66 34.98 47 36 C47.99 35.67 48.98 35.34 50 35 C52.37255859 35.84863281 52.37255859 35.84863281 55.1484375 37.203125 C56.15390625 37.68910156 57.159375 38.17507812 58.1953125 38.67578125 C59.24460938 39.19527344 60.29390625 39.71476562 61.375 40.25 C62.4165625 40.75402344 63.458125 41.25804687 64.53125 41.77734375 C69.14443425 44.02494375 73.60324288 46.35329338 78 49 C80.18560948 50.00412521 82.3732812 51.00376846 84.5625 52 C92.31303998 55.72371164 98.09519284 60.81926727 104 67 C104.60070312 67.61875 105.20140625 68.2375 105.8203125 68.875 C110.37210674 74.28513259 110.17043781 80.85267989 109.89453125 87.56640625 C108.83174549 99.73831107 99.64550055 110.88273777 91 119 C90.34 119 89.68 119 89 119 C88.69449219 119.81210938 88.69449219 119.81210938 88.3828125 120.640625 C86.44687192 123.94375526 83.71300664 126.24122847 80.875 128.75 C80.31167969 129.25660156 79.74835938 129.76320312 79.16796875 130.28515625 C77.78348469 131.52884532 76.39238512 132.76516305 75 134 C76.19354936 138.60490119 76.19354936 138.60490119 78.00097656 142.98535156 C81.57655312 150.19592287 81.30804902 158.39403304 81.25 166.25 C81.25773438 167.3121875 81.26546875 168.374375 81.2734375 169.46875 C81.27085937 170.49484375 81.26828125 171.5209375 81.265625 172.578125 C81.26336914 173.50012695 81.26111328 174.42212891 81.25878906 175.37207031 C80.97683288 178.23525556 80.15632472 180.3795378 79 183 C78.72048844 184.34838446 78.47001217 185.70313912 78.25 187.0625 C76.25390622 196.21126316 71.35431568 203.89484112 65.75 211.25 C65.09547852 212.10996582 65.09547852 212.10996582 64.42773438 212.98730469 C63.33772228 214.36804319 62.17446507 215.69034471 61 217 C60.34 217 59.68 217 59 217 C57.40121925 218.74574388 55.98584121 220.59881337 54.53515625 222.46875 C53 224 53 224 50 224 C49.78085938 224.59554687 49.56171875 225.19109375 49.3359375 225.8046875 C47.56300889 228.71809651 45.6425194 229.57983591 42.625 231.125 C41.66851562 231.62257812 40.71203125 232.12015625 39.7265625 232.6328125 C38.37691406 233.30957031 38.37691406 233.30957031 37 234 C36.30519531 234.35707031 35.61039062 234.71414062 34.89453125 235.08203125 C30.14855221 237.38162934 25.22178942 239.19664778 20 240 C18.80375 240.20625 17.6075 240.4125 16.375 240.625 C13 241 13 241 10 240 C10 240.66 10 241.32 10 242 C7.6875 242.2421875 7.6875 242.2421875 5 242 C3.375 240.3828125 3.375 240.3828125 2 238.125 C1.50242187 237.31160156 1.00484375 236.49820313 0.4921875 235.66015625 C-6 224.08638743 -6 224.08638743 -6 221 C-6.99 220.67 -7.98 220.34 -9 220 C-10.04644066 218.36209288 -11.0398183 216.68991979 -12 215 C-13.0828125 213.6696875 -13.0828125 213.6696875 -14.1875 212.3125 C-16 210 -16 210 -16 208 C-16.66 208 -17.32 208 -18 208 C-19.3540932 206.01399663 -20.68457624 204.01182457 -22 202 C-23.11375 200.88625 -23.11375 200.88625 -24.25 199.75 C-24.8275 199.1725 -25.405 198.595 -26 198 C-26 197.34 -26 196.68 -26 196 C-26.66 196 -27.32 196 -28 196 C-28 195.34 -28 194.68 -28 194 C-28.639375 193.731875 -29.27875 193.46375 -29.9375 193.1875 C-32 192 -32 192 -33 189 C-33.66 189 -34.32 189 -35 189 C-35 188.01 -35 187.02 -35 186 C-35.82757813 185.67708984 -35.82757813 185.67708984 -36.671875 185.34765625 C-39.77084595 183.55378884 -41.90602304 181.09107434 -44.25 178.4375 C-44.72800049 177.90463379 -45.20600098 177.37176758 -45.69848633 176.82275391 C-46.67009453 175.73835672 -47.63927076 174.65177541 -48.60595703 173.56298828 C-49.89014372 172.12316986 -51.19232338 170.69945322 -52.49609375 169.27734375 C-53.21925781 168.48457031 -53.94242188 167.69179687 -54.6875 166.875 C-55.65236328 165.81925781 -55.65236328 165.81925781 -56.63671875 164.7421875 C-58 163 -58 163 -58 161 C-58.66 161 -59.32 161 -60 161 C-61.73663305 158.8254852 -63.348764 156.65379305 -64.9375 154.375 C-65.38029297 153.75753906 -65.82308594 153.14007813 -66.27929688 152.50390625 C-68.87947537 148.82258052 -71.24365155 145.17362245 -73 141 C-72.505 140.01 -72.505 140.01 -72 139 C-72.99 138.67 -73.98 138.34 -75 138 C-75.9140625 135.75 -75.9140625 135.75 -76.625 133 C-77.287116 129.71560993 -77.287116 129.71560993 -79 127 C-79.10044341 124.55095331 -79.13874416 122.13625103 -79.125 119.6875 C-79.12886719 119.01009766 -79.13273437 118.33269531 -79.13671875 117.63476562 C-79.1301423 114.27091122 -79.02209859 111.21442599 -78 108 C-77.7525 107.071875 -77.505 106.14375 -77.25 105.1875 C-75.75188057 101.36729545 -73.79444777 98.02731842 -71 95 C-70.34 95 -69.68 95 -69 95 C-68.67 94.01 -68.34 93.02 -68 92 C-66.68 92.66 -65.36 93.32 -64 94 C-64.03480469 94.65484375 -64.06960937 95.3096875 -64.10546875 95.984375 C-64.32312854 103.32261927 -63.43382021 110.04463306 -61 117 C-60.34 117.66 -59.68 118.32 -59 119 C-58.14210363 120.59116591 -57.31315416 122.19801078 -56.5 123.8125 C-51.4520145 133.21730429 -44.61237682 141.50491059 -37.375 149.31640625 C-35.90968074 151.11058977 -34.95713146 152.89707174 -34 155 C-33.34 155 -32.68 155 -32 155 C-30.56450274 156.59334239 -29.20172673 158.25251082 -27.875 159.9375 C-25.03142474 163.5021733 -22.161041 166.96784271 -19.0625 170.3125 C-15.66636154 174.09053354 -12.64829439 178.06656201 -9.6875 182.1875 C-9.26670166 182.76991455 -8.84590332 183.3523291 -8.41235352 183.95239258 C-5.90455215 187.49884462 -3.88478773 191.09344869 -2 195 C-1.29750641 196.14184578 -0.57423781 197.27179352 0.1875 198.375 C0.785625 199.24125 1.38375 200.1075 2 201 C3.61949011 198.42786866 4.04408751 197.32330841 3.625 194.25 C3.315625 193.13625 3.315625 193.13625 3 192 C3.639375 191.773125 4.27875 191.54625 4.9375 191.3125 C7.22728871 190.18776024 7.22728871 190.18776024 7.5625 187.75 C7.706875 186.8425 7.85125 185.935 8 185 C8.98210371 182.9911515 9.98440599 180.99212671 11 179 C11.78823066 176.92264332 12.53300487 174.83598581 13.25390625 172.734375 C14 171 14 171 16 169 C11.71 168.67 7.42 168.34 3 168 C4 164 4 164 5 163 C6.35544922 163.12181641 6.35544922 163.12181641 7.73828125 163.24609375 C14.76412229 163.65557029 14.76412229 163.65557029 20.73974609 160.515625 C24.12647882 156.69212123 26.8878851 152.45790639 29.60546875 148.14404297 C31.89107269 144.63000694 34.44362602 141.3198286 37 138 C33.01306942 137.83034338 29.57315943 138.00411206 25.6875 138.9375 C17.60432564 140.84831843 10.99620558 141.51732398 3 139 C3.33 137.68 3.66 136.36 4 135 C4.92941406 134.93941406 5.85882813 134.87882813 6.81640625 134.81640625 C19.5670045 134.08498461 19.5670045 134.08498461 31.6875 130.4375 C32.780625 129.963125 33.87375 129.48875 35 129 C34.4506997 123.91647541 31.98556061 120.12430241 29.4375 115.8125 C28.59906849 114.38373128 27.76424466 112.9528374 26.93359375 111.51953125 C26.56290771 110.89151611 26.19222168 110.26350098 25.81030273 109.61645508 C25 108 25 108 25 106 C24.43152344 106.13277344 23.86304688 106.26554687 23.27734375 106.40234375 C17.64894346 107.68964064 12.05138626 108.64518764 6.3125 109.3125 C3.35803309 110.19085503 1.99802439 111.705972 0 114 C-2.63379708 110.34666857 -4.46884894 107.51478398 -5 103 C-5.66 103 -6.32 103 -7 103 C-7 102.01 -7 101.02 -7 100 C-7.66 100 -8.32 100 -9 100 C-13.42857143 92.57142857 -13.42857143 92.57142857 -14 89 C-14.66 89 -15.32 89 -16 89 C-16.40025391 87.93845703 -16.40025391 87.93845703 -16.80859375 86.85546875 C-18.04856734 83.88359762 -19.52552487 81.14098741 -21.0625 78.3125 C-23.55281681 73.42253326 -24.70874621 69.42832583 -24.89453125 63.9609375 C-24.8736446 61.92060169 -24.8736446 61.92060169 -26 60 C-26.3125 57.125 -26.3125 57.125 -26 54 C-24 51.625 -24 51.625 -22 50 C-19.06726519 52.93273481 -18.81417842 56.30788349 -17.87890625 60.2734375 C-16.98265501 63.05380803 -15.87989563 64.79020626 -14 67 C-14.165 66.236875 -14.33 65.47375 -14.5 64.6875 C-14.92944966 61.52030877 -15.16538444 58.50250671 -15.25 55.3125 C-15.27578125 54.38050781 -15.3015625 53.44851562 -15.328125 52.48828125 C-14.94789772 49.60489106 -14.24537994 48.76675948 -12 47 C-12 47.66 -12 48.32 -12 49 C-11.34 49 -10.68 49 -10 49 C-9.89171875 50.46373047 -9.89171875 50.46373047 -9.78125 51.95703125 C-9.09648519 56.74676824 -6.85998866 60.52646737 -4.5 64.6875 C-3.67315966 66.16838898 -2.85009878 67.65139596 -2.03125 69.13671875 C-1.66580078 69.78342529 -1.30035156 70.43013184 -0.92382812 71.09643555 C0.02843889 73.05859885 0.49934743 74.88348601 1 77 C1.495 78.134375 1.99 79.26875 2.5 80.4375 C3.73921944 83.38064616 4.52538482 85.86753978 5 89 C5.33 88.67 5.66 88.34 6 88 C11.8764486 87.40433659 16.67019427 87.93298783 22.0625 90.28125 C24.14066931 91.05218378 25.92085087 91.27051901 28.125 91.4375 C32.50024466 92.07261616 34.45889297 93.43834811 38 96 C39.03125 96.391875 40.0625 96.78375 41.125 97.1875 C48.01645754 99.95335403 54.96702737 105.62230322 60 111 C63.39687676 109.53438126 65.60722686 107.63352456 68.1875 105 C68.88230469 104.29875 69.57710937 103.5975 70.29296875 102.875 C72.06189325 101.10241668 72.06189325 101.10241668 73 99 C73.66 99 74.32 99 75 99 C75.268125 98.4225 75.53625 97.845 75.8125 97.25 C77.40754365 94.22781204 79.46392615 91.68617453 81.5625 89 C82.95616273 87.06099098 83.99212059 85.15974159 85 83 C85.33 82.34 85.66 81.68 86 81 C85.4712232 76.735671 84.25394993 73.14154406 81.0390625 70.21484375 C78.74542618 68.68444818 76.42063211 67.3192445 74 66 C73.3503125 65.60941406 72.700625 65.21882813 72.03125 64.81640625 C68.08290484 62.45259435 64.23335834 60.40674992 59.68359375 59.578125 C56.8498988 58.96766379 54.36406441 58.04381329 51.6875 56.9375 C50.80449219 56.57527344 49.92148438 56.21304688 49.01171875 55.83984375 C48.34785156 55.56269531 47.68398437 55.28554688 47 55 C47 54.34 47 53.68 47 53 C45.515 53.495 45.515 53.495 44 54 C40.92578125 52.92578125 40.92578125 52.92578125 37.3125 51.3125 C36.68472656 51.032854 36.05695313 50.75320801 35.41015625 50.46508789 C33.60191462 49.65413448 31.80076134 48.82743085 30 48 C29.17886719 47.63132813 28.35773438 47.26265625 27.51171875 46.8828125 C23.09262416 44.80626708 19.70059513 42.22817873 16 39 C13.69535713 37.28904809 11.35182315 35.64627621 9 34 C8.34 35.32 7.68 36.64 7 38 C7.33 38.33 7.66 38.66 8 39 C8.28831863 42.1989639 8.44882341 45.39830814 8.62109375 48.60546875 C8.99840018 51.98566763 9.9267934 54.78967202 11 58 C10.505 58.99 10.505 58.99 10 60 C10.66 60 11.32 60 12 60 C13.625 62 13.625 62 15 64 C15.99 63.67 16.98 63.34 18 63 C18.54269531 63.62648437 19.08539063 64.25296875 19.64453125 64.8984375 C20.35996094 65.71570313 21.07539063 66.53296875 21.8125 67.375 C22.52019531 68.18710938 23.22789062 68.99921875 23.95703125 69.8359375 C25.99981253 72.16183188 25.99981253 72.16183188 29 74 C29 74.66 29 75.32 29 76 C30.6266848 75.71788123 32.25132896 75.42397625 33.875 75.125 C34.77992188 74.96257812 35.68484375 74.80015625 36.6171875 74.6328125 C40.42132442 73.62253351 41.66225235 71.07737775 43.625 67.875 C44.29402344 66.78832031 44.29402344 66.78832031 44.9765625 65.6796875 C45.31429687 65.12539062 45.65203125 64.57109375 46 64 C47.485 64.495 47.485 64.495 49 65 C48.97451421 71.93213379 48.3620059 77.05399793 43.72265625 82.40625 C38.73708723 87.01874923 33.23323668 87.52851 26.7265625 87.3671875 C22.61117208 86.81296587 19.48398063 85.17421348 16 83 C15.34 82.67 14.68 82.34 14 82 C14 81.34 14 80.68 14 80 C13.39800781 79.90074219 12.79601562 79.80148438 12.17578125 79.69921875 C6.56569038 77.89633497 3.65950641 70.55106503 1.13208008 65.67651367 C-1.16391208 61.14565294 -3.23265846 57.04960237 -4 52 C-4.33283897 50.31240242 -4.66617086 48.62490199 -5 46.9375 C-5.165 46.10089844 -5.33 45.26429687 -5.5 44.40234375 C-5.80624594 42.93092769 -6.15060332 41.46604278 -6.55859375 40.01953125 C-7.09780304 37.55252945 -7.09569301 35.27266868 -7.0625 32.75 C-7.05347656 31.85796875 -7.04445313 30.9659375 -7.03515625 30.046875 C-7.02355469 29.37140625 -7.01195312 28.6959375 -7 28 C-6.34 28 -5.68 28 -5 28 C-5.185625 26.948125 -5.37125 25.89625 -5.5625 24.8125 C-5.96442965 21.30997018 -5.83540628 19.34162512 -5 16 C-4.835 14.824375 -4.67 13.64875 -4.5 12.4375 C-3.14893617 3.14893617 -3.14893617 3.14893617 0 0 Z M-22 52 C-21 54 -21 54 -21 54 Z M-13 69 C-12 71 -12 71 -12 71 Z M-12 71 C-12.33 71.99 -12.66 72.98 -13 74 C-12.01 74.33 -11.02 74.66 -10 75 C-9.67 74.01 -9.34 73.02 -9 72 C-9.99 71.67 -10.98 71.34 -12 71 Z M-10 75 C-9 77 -9 77 -9 77 Z M-8 79 C-8.33 79.66 -8.66 80.32 -9 81 C-8.34 81 -7.68 81 -7 81 C-7.33 80.34 -7.66 79.68 -8 79 Z M-1 92 C-0.67 93.32 -0.34 94.64 0 96 C0.33 95.34 0.66 94.68 1 94 C0.34 93.34 -0.32 92.68 -1 92 Z M4 92 C4 92.66 4 93.32 4 94 C3.01 94.33 2.02 94.66 1 95 C1.33 97.97 1.66 100.94 2 104 C2.85464844 104 3.70929688 104 4.58984375 104 C8.05989583 104 11.52994792 104 15 104 C15.33 103.34 15.66 102.68 16 102 C16.99 101.67 17.98 101.34 19 101 C17.19096826 98.56173983 15.86215328 97.13629066 12.80078125 96.65234375 C11.21029127 96.55245791 9.61692021 96.48992585 8.0234375 96.46875 C6 96 6 96 4.7265625 93.96875 C4.48679687 93.3190625 4.24703125 92.669375 4 92 Z M31 103 C32.12451727 105.9719385 33.22293791 108.33440687 35 111 C34.67 111.66 34.34 112.32 34 113 C34.66 113.66 35.32 114.32 36 115 C38.3566861 118.53502915 39.74098978 121.95318144 41 126 C41.33 126.66 41.66 127.32 42 128 C46.04861209 127.74565563 46.04861209 127.74565563 50 127 C51.3498008 125.21734114 51.3498008 125.21734114 52 123 C53.30439891 121.63834694 54.63565607 120.30158411 56 119 C55.0821875 118.34773438 54.164375 117.69546875 53.21875 117.0234375 C51.97910882 116.14070623 50.73952955 115.25788802 49.5 114.375 C48.8608667 113.9207666 48.2217334 113.4665332 47.56323242 112.99853516 C43.47708499 110.08525858 39.46536157 107.10301749 35.55078125 103.9609375 C33.8790431 102.73663844 33.8790431 102.73663844 31 103 Z M62.5625 144.75 C61.63630859 145.51570312 61.63630859 145.51570312 60.69140625 146.296875 C58.90478832 148.09587135 58.07332141 149.72437435 57 152 C55.66666667 153.33333333 54.33333333 154.66666667 53 156 C53 156.66 53 157.32 53 158 C52.01 158.33 51.02 158.66 50 159 C49.34 159.99 48.68 160.98 48 162 C50.18877111 164.18877111 54.71831725 163.83569258 57.75 164.1875 C58.56210938 164.29513672 59.37421875 164.40277344 60.2109375 164.51367188 C64.70754219 165.03729929 67.88309135 165.25091144 72 163 C72.27480257 155.30552794 71.65565863 148.4774381 67 142 C65.16000935 142 63.91259234 143.61603471 62.5625 144.75 Z M48 170 C47.67 173.63 47.34 177.26 47 181 C46.01 181.495 46.01 181.495 45 182 C44.56916165 183.99108405 44.56916165 183.99108405 44.4375 186.3125 C44.24523052 188.68643953 44.07337208 190.77021798 43.34765625 193.04296875 C42.85072723 195.0340932 42.85072723 195.0340932 43.5625 197.08203125 C45.61085547 199.81502727 47.83479067 200.48152481 51 201.6875 C52.60875 202.31205078 52.60875 202.31205078 54.25 202.94921875 C55.61125 203.46935547 55.61125 203.46935547 57 204 C57.66 204.33 58.32 204.66 59 205 C65.69052991 194.75575469 65.69052991 194.75575469 68 183 C68.66 182.67 69.32 182.34 70 182 C70 180.02 70 178.04 70 176 C70.66 175.67 71.32 175.34 72 175 C71.67 173.35 71.34 171.7 71 170 C63.41 170 55.82 170 48 170 Z M39 174 C37.36919073 176.39205419 35.74527814 178.78832782 34.125 181.1875 C33.66480469 181.86103516 33.20460938 182.53457031 32.73046875 183.22851562 C30.37990182 186.72029983 28.35855965 189.97897575 27 194 C30.3 194.33 33.6 194.66 37 195 C39.68902652 188.97658059 40.27170568 185.474138 39 179 C39.66 178.67 40.32 178.34 41 178 C40.34 176.68 39.68 175.36 39 174 Z M76 188 C77 190 77 190 77 190 Z M23.6875 198.875 C22.8521875 199.431875 22.8521875 199.431875 22 200 C22 200.99 22 201.98 22 203 C21.01 203.495 21.01 203.495 20 204 C18.97738958 205.68907502 18.97738958 205.68907502 18.0546875 207.74609375 C17.70019531 208.50083984 17.34570312 209.25558594 16.98046875 210.03320312 C16.61566406 210.82662109 16.25085938 211.62003906 15.875 212.4375 C15.50246094 213.22705078 15.12992187 214.01660156 14.74609375 214.83007812 C12.73296779 218.75700586 12.73296779 218.75700586 12 223 C13.60320974 223.19551338 15.20762986 223.38111983 16.8125 223.5625 C17.70582031 223.66691406 18.59914063 223.77132812 19.51953125 223.87890625 C22.13375572 224.15658709 22.13375572 224.15658709 25 223 C30.01714454 217.03366595 32.89368787 210.09861706 36 203 C30.19881165 198.89148689 30.19881165 198.89148689 23.6875 198.875 Z M41 204 C40.608125 204.78375 40.21625 205.5675 39.8125 206.375 C39.53792969 206.92027344 39.26335937 207.46554688 38.98046875 208.02734375 C38.26250681 209.47184885 37.55875102 210.92343858 36.86328125 212.37890625 C34.309141 217.65638846 31.55115028 222.33277392 28 227 C36.44037515 227 45.49524137 220.02210592 51.640625 214.53515625 C53.24133048 212.92963131 53.24133048 212.92963131 54 210 C52.58671871 209.18162558 51.16921654 208.37053781 49.75 207.5625 C48.96109375 207.11003906 48.1721875 206.65757812 47.359375 206.19140625 C45.21166532 205.10688398 43.34794939 204.46851284 41 204 Z M8 228 C8 229.32 8 230.64 8 232 C11.465 231.505 11.465 231.505 15 231 C14.34 230.01 13.68 229.02 13 228 C10.41619823 227.74969023 10.41619823 227.74969023 8 228 Z " fill="#61010C" transform="translate(157,8)"/>
<path d="M0 0 C1.33862614 2.67725229 1.9841182 4.06716111 2 7 C0.63619206 9.57866758 -1.04809019 11.72229873 -2.83984375 14.0234375 C-5.40920003 17.56385248 -7.41983528 21.25210581 -9.4375 25.125 C-9.79118652 25.80111328 -10.14487305 26.47722656 -10.50927734 27.17382812 C-11.34490737 28.77975937 -12.17326267 30.38947273 -13 32 C-11.700625 31.855625 -10.40125 31.71125 -9.0625 31.5625 C-8.33160156 31.48128906 -7.60070312 31.40007812 -6.84765625 31.31640625 C-4.98859771 31.18113386 -4.98859771 31.18113386 -4 30 C-1.71195833 29.78933632 0.58103822 29.63135159 2.875 29.5 C9.35684539 29.48560706 9.35684539 29.48560706 14.5625 26.25 C16.06009554 24.08600027 16.06009554 24.08600027 16.80859375 21.77734375 C18.29317797 18.3165589 20.33328881 15.36873958 22.5 12.3125 C22.90347656 11.73177734 23.30695313 11.15105469 23.72265625 10.55273438 C25.36834057 8.20369653 26.96806877 6.03193123 29 4 C32.125 4.375 32.125 4.375 35 5 C35 5.66 35 6.32 35 7 C35.66 7 36.32 7 37 7 C35.76371237 10.82125267 33.9324163 13.34335428 31.34838867 16.38085938 C22.90937017 26.51440468 15.66116475 37.55631673 15 51 C16.65 51.33 18.3 51.66 20 52 C20.20625 50.700625 20.4125 49.40125 20.625 48.0625 C22.95204577 37.80745 31.02462281 29.18843686 39.46875 23.26953125 C43.60698647 21.19402685 47.47991106 21.34292637 52 22 C57.4939759 24.69879518 57.4939759 24.69879518 58.875 28.25 C58.91625 28.8275 58.9575 29.405 59 30 C58.34 30 57.68 30 57 30 C56.67 30.66 56.34 31.32 56 32 C54.948125 31.46375 53.89625 30.9275 52.8125 30.375 C50.25287775 29.30592083 49.24323196 28.96440508 46.4375 29.375 C43.4556406 31.36290627 41.51424095 33.71773597 39.33203125 36.5390625 C38.89246094 37.02117187 38.45289062 37.50328125 38 38 C37.34 38 36.68 38 36 38 C35.773125 38.66 35.54625 39.32 35.3125 40 C33.59428642 43.92734533 31.33225393 47.41260178 29 51 C34.19648839 46.80231717 38.38930806 42.42532748 42.40625 37.09375 C44.45933547 34.39655928 46.36144035 32.13937269 49 30 C51.48185976 30.14182056 52.79246904 30.89623452 55 32 C55.125 37.75 55.125 37.75 54 40 C53.34 40 52.68 40 52 40 C52.33 40.99 52.66 41.98 53 43 C52.67 43.763125 52.34 44.52625 52 45.3125 C50.77578487 48.60257815 51.21604818 50.62900718 52 54 C53.32 53.67 54.64 53.34 56 53 C55.79632813 52.49597656 55.59265625 51.99195313 55.3828125 51.47265625 C54.82957952 47.89922279 55.88335487 44.84258608 56.875 41.4375 C57.06191406 40.76525391 57.24882812 40.09300781 57.44140625 39.40039062 C58.23221426 36.5764769 59.07258185 33.78225444 60 31 C60.35543427 28.66993089 60.6913753 26.33672984 61 24 C59.515 23.505 59.515 23.505 58 23 C59.125 21.4375 59.125 21.4375 61 20 C64.09833461 20.12909728 66.20334371 20.47805278 68.8125 22.1875 C70.4528699 24.69122248 70.67321963 27.0589767 71 30 C71.55429688 29.4225 72.10859375 28.845 72.6796875 28.25 C73.40414062 27.5075 74.12859375 26.765 74.875 26 C75.59429687 25.2575 76.31359375 24.515 77.0546875 23.75 C79 22 79 22 81 22 C81.37125 21.0409375 81.37125 21.0409375 81.75 20.0625 C83 18 83 18 84.8125 17.125 C87.78636938 16.95506461 89.40467811 17.53597227 92 19 C94.70511227 22.45135013 95.21511635 24.69767309 95 29 C95.46729998 31.80379986 96.0994064 34.2982192 97 37 C97.40089844 36.5153125 97.80179688 36.030625 98.21484375 35.53125 C105.61213238 26.8088235 114.03745226 17.45884729 126 16 C126.60972656 15.89816406 127.21945313 15.79632813 127.84765625 15.69140625 C134.63493104 14.6936399 141.20182328 15.31703016 148 16 C148 16.66 148 17.32 148 18 C148.71285156 17.9278125 149.42570313 17.855625 150.16015625 17.78125 C155.46793427 17.26690274 160.66791429 16.88150921 166 17 C166.99 13.7 167.98 10.4 169 7 C168.01 6.505 168.01 6.505 167 6 C168 4 168 4 169.8125 3.3125 C172.26710658 2.96184192 173.70029425 3.0801177 176 4 C178.33769735 7.50654602 178.24715017 8.88083042 178 13 C177.67 14.65 177.34 16.3 177 18 C180.63 18 184.26 18 188 18 C188.33 18.66 188.66 19.32 189 20 C188.34 20 187.68 20 187 20 C187 20.66 187 21.32 187 22 C185.37239583 22.45572917 183.74479167 22.91145833 182.1171875 23.3671875 C181.06917969 23.68042969 181.06917969 23.68042969 180 24 C179.01515625 24.20882813 178.0303125 24.41765625 177.015625 24.6328125 C172.97148109 26.46629744 171.71010536 29.1633026 169.875 33 C169.535896 33.67264893 169.19679199 34.34529785 168.84741211 35.03833008 C162.60100838 46.13120042 162.60100838 46.13120042 162 58 C164.01508358 58.73323796 164.01508358 58.73323796 166 59 C164.875 61 164.875 61 163 63 C159.67782711 63.49479171 157.78179044 63.44108249 154.83984375 61.78125 C153 60 153 60 152.46875 57.72265625 C152.57694851 48.51225843 155.0608224 40.60639631 159.25 32.4375 C161.22684152 29.19730486 161.22684152 29.19730486 161 26 C160.01 26 159.02 26 158 26 C157.67 27.65 157.34 29.3 157 31 C156.175 30.9175 155.35 30.835 154.5 30.75 C149.23586099 31.12600993 144.74105716 33.25894284 141 37 C141.27162307 41.12867066 142.6516625 43.10496845 145.5 46 C148.3764582 48.92361325 149.61565499 50.86660544 150 55 C149.0625 57.3125 149.0625 57.3125 148 59 C147.34 59 146.68 59 146 59 C146 59.66 146 60.32 146 61 C140.80744353 63.2068365 137.40534019 63.17115704 132 62 C131.34 61.01 130.68 60.02 130 59 C130.33 58.01 130.66 57.02 131 56 C133.02364324 55.09721088 135.05752196 54.54616787 137.1875 53.94140625 C139.21488824 53.14939227 139.21488824 53.14939227 139.75 50.90234375 C139.8325 50.27457031 139.915 49.64679688 140 49 C139.34 49 138.68 49 138 49 C138 48.01 138 47.02 138 46 C134.9821806 45.65080559 134.9821806 45.65080559 133.38671875 47.57421875 C132.82597656 48.27160156 132.26523438 48.96898437 131.6875 49.6875 C126.39328573 55.97159887 121.85359273 59.97562127 113.5 61.4375 C109.71047337 60.77433284 107.25032372 59.02873758 105 56 C102.72531725 49.91821665 104.37742514 44.88888868 106.89453125 39.1640625 C108 37 108 37 110 34 C110.66 34 111.32 34 112 34 C111.67 33.34 111.34 32.68 111 32 C102.61666705 40.54741954 96.38565326 48.70239552 92 60 C90 60 88 60 86 60 C84.87338129 53.49064748 84.87338129 53.49064748 85.5 51.0625 C86.09342553 48.6146197 85.89194097 46.73910953 85.5625 44.25 C85.40974609 43.05117188 85.40974609 43.05117188 85.25390625 41.828125 C85.12822266 40.92320312 85.12822266 40.92320312 85 40 C84.2575 40.226875 83.515 40.45375 82.75 40.6875 C80 41 80 41 77.6875 39.6875 C77.130625 39.130625 76.57375 38.57375 76 38 C76 37.34 76 36.68 76 36 C68.99598194 40.83913975 65.87445243 46.45548391 62.4453125 53.98828125 C61 57 61 57 59 59 C57.32457024 58.71395102 55.65614657 58.38218767 54 58 C53.67 58.33 53.34 58.66 53 59 C49.810549 59.28350676 47.61824763 59.28405972 44.6875 57.9375 C42.27251186 55.16473584 42.27079061 52.58797552 42 49 C41.34 49 40.68 49 40 49 C39.773125 49.556875 39.54625 50.11375 39.3125 50.6875 C36.79933303 55.11546085 34.3919573 57.60927514 29.4375 59 C26 59 26 59 24.09765625 57.4609375 C22.09201971 55.74988528 22.09201971 55.74988528 19.5625 56.1015625 C18.716875 56.27429688 17.87125 56.44703125 17 56.625 C14.34765625 56.9765625 14.34765625 56.9765625 12 57 C8.79780001 54.50072196 8.17092001 52.63484576 7.125 48.75 C6.97403859 44.22115769 7.80781945 40.34505473 9 36 C8.0409375 36.495 8.0409375 36.495 7.0625 37 C3.50460089 38.16176297 0.59742861 38.11380937 -3.109375 37.97265625 C-5.01284202 37.78057297 -5.01284202 37.78057297 -6 39 C-8.51708673 39.20299087 -11.0317619 39.31912696 -13.5546875 39.42578125 C-16.10239618 39.79588849 -16.10239618 39.79588849 -17.72265625 41.73828125 C-19.061223 44.10840402 -19.84737836 46.25152517 -20.5625 48.875 C-21.34124318 51.68257408 -22.13260153 54.34197236 -23.1875 57.0625 C-24.14565163 60.52658668 -24.02583518 63.48314428 -23.77734375 67.046875 C-23.85082031 67.69140625 -23.92429687 68.3359375 -24 69 C-25.485 69.99 -25.485 69.99 -27 71 C-29.96883848 68.54748126 -30.59519578 66.80515963 -31 63 C-31.29208902 57.45943649 -31.29094174 53.12092859 -29 48 C-28.54355755 45.33658308 -28.27367263 42.69111418 -28 40 C-28.680625 40.0825 -29.36125 40.165 -30.0625 40.25 C-34.16875665 39.90053135 -36.52321895 38.18150968 -40 36 C-39.67 34.35 -39.34 32.7 -39 31 C-36 30 -36 30 -32.92578125 30.24609375 C-28.82405979 30.46337413 -25.90026181 30.34193248 -22 29 C-18.42339357 25.11936245 -16.72247877 19.8608295 -14.83056641 15.01464844 C-13.69085894 12.25013756 -12.2424854 9.73752472 -10.6875 7.1875 C-10.01267578 6.06408203 -10.01267578 6.06408203 -9.32421875 4.91796875 C-6.50989256 0.84176179 -5.07244107 -0.41127901 0 0 Z M129 21 C128.67 21.66 128.34 22.32 128 23 C128.763125 23.5775 129.52625 24.155 130.3125 24.75 C132.66200917 26.71703093 134.29323505 28.48476744 136 31 C140.66906555 27.18561401 140.66906555 27.18561401 145 23 C139.42932723 21.40837921 134.78898419 20.79325056 129 21 Z M85 27 C83.35558108 30.44770644 83.35558108 30.44770644 83.25 34.1875 C83.94907214 36.20441549 83.94907214 36.20441549 86 38 C87.20272819 35.59454362 87.10071472 34.05003047 87.0625 31.375 C87.05347656 30.55773437 87.04445313 29.74046875 87.03515625 28.8984375 C87.02355469 28.27195312 87.01195312 27.64546875 87 27 C86.34 27 85.68 27 85 27 Z M-35 31 C-35 31.33 -35 31.66 -35 32 C-30.71 32 -26.42 32 -22 32 C-22 31.67 -22 31.34 -22 31 C-26.29 31 -30.58 31 -35 31 Z M125 31 C125 31.66 125 32.32 125 33 C124.01 33.33 123.02 33.66 122 34 C120.30117552 36.49759982 120.30117552 36.49759982 119 39 C120.65 38.34 122.3 37.68 124 37 C124 36.34 124 35.68 124 35 C124.66 35 125.32 35 126 35 C125.67 33.68 125.34 32.36 125 31 Z M134 31 C135 33 135 33 135 33 Z M132 33 C133 35 133 35 133 35 Z M132 36 C130.9171875 37.1446875 130.9171875 37.1446875 129.8125 38.3125 C124.96918184 42.94055957 121.5451614 44 115 44 C112.5705484 47.6441774 112.83820425 49.71241272 113 54 C114.89903846 55.16105769 114.89903846 55.16105769 116.8125 54.875 C119.91823863 53.63270455 121.6893171 51.37149035 124 49 C124.66 49 125.32 49 126 49 C127.54255242 47.44023972 127.54255242 47.44023972 129.0625 45.5 C130.022258 44.31731532 130.99702193 43.14626065 132 42 C132.33 42 132.66 42 133 42 C133 40.02 133 38.04 133 36 C132.67 36 132.34 36 132 36 Z " fill="#60030D" transform="translate(80,241)"/>
<path d="M0 0 C0.28875 1.0725 0.5775 2.145 0.875 3.25 C1.8127196 6.77228772 1.8127196 6.77228772 3.00097656 8.98535156 C6.57655312 16.19592287 6.30804902 24.39403304 6.25 32.25 C6.26160156 33.84328125 6.26160156 33.84328125 6.2734375 35.46875 C6.27085937 36.49484375 6.26828125 37.5209375 6.265625 38.578125 C6.26336914 39.50012695 6.26111328 40.42212891 6.25878906 41.37207031 C5.97683288 44.23525556 5.15632472 46.3795378 4 49 C3.72048844 50.34838446 3.47001217 51.70313912 3.25 53.0625 C1.25390622 62.21126316 -3.64568432 69.89484112 -9.25 77.25 C-9.68634766 77.82331055 -10.12269531 78.39662109 -10.57226562 78.98730469 C-11.66227772 80.36804319 -12.82553493 81.69034471 -14 83 C-14.66 83 -15.32 83 -16 83 C-17.59878075 84.74574388 -19.01415879 86.59881337 -20.46484375 88.46875 C-22 90 -22 90 -25 90 C-25.32871094 90.89332031 -25.32871094 90.89332031 -25.6640625 91.8046875 C-27.43699111 94.71809651 -29.3574806 95.57983591 -32.375 97.125 C-33.33148438 97.62257813 -34.28796875 98.12015625 -35.2734375 98.6328125 C-36.62308594 99.30957031 -36.62308594 99.30957031 -38 100 C-38.69480469 100.35707031 -39.38960937 100.71414062 -40.10546875 101.08203125 C-44.85144779 103.38162934 -49.77821058 105.19664778 -55 106 C-56.794375 106.309375 -56.794375 106.309375 -58.625 106.625 C-62 107 -62 107 -65 106 C-65 106.66 -65 107.32 -65 108 C-66.65 108 -68.3 108 -70 108 C-70.66 106.68 -71.32 105.36 -72 104 C-71.34 104 -70.68 104 -70 104 C-70 103.236875 -70 102.47375 -70 101.6875 C-69 99 -69 99 -67.15234375 98 C-65.11690505 97.25331349 -63.08737258 96.58484471 -61 96 C-62.65 95.67 -64.3 95.34 -66 95 C-66 93.35 -66 91.7 -66 90 C-62.78187646 88.39093823 -59.36028574 89.14803235 -55.82421875 89.35546875 C-52.00848312 88.87520327 -50.66839479 87.76770398 -48 85 C-46.34514939 82.34536595 -45.00669451 79.58363981 -43.6875 76.75 C-43.32849609 76.00492187 -42.96949219 75.25984375 -42.59960938 74.4921875 C-41.72199241 72.66674422 -40.85945177 70.8340658 -40 69 C-41.4562545 68.32880451 -42.91507867 67.66318193 -44.375 67 C-45.18710938 66.62875 -45.99921875 66.2575 -46.8359375 65.875 C-48.91998433 64.87504987 -48.91998433 64.87504987 -51 65 C-51 63.35 -51 61.7 -51 60 C-47.72814447 58.92689142 -45.57052408 59.10736898 -42.25 59.9375 C-41.45078125 60.13214844 -40.6515625 60.32679688 -39.828125 60.52734375 C-38.92320312 60.76130859 -38.92320312 60.76130859 -38 61 C-37.855625 59.948125 -37.71125 58.89625 -37.5625 57.8125 C-37.25538946 55.73097302 -36.92452231 53.65041913 -36.48046875 51.59375 C-35.98684631 48.92899146 -35.85962677 46.3929321 -35.75 43.6875 C-35.29356927 38.15795396 -33.61639021 34.2134889 -30 30 C-27.08504599 28.54252299 -24.49538627 28.86815319 -21.25 28.875 C-19.43242187 28.87113281 -19.43242187 28.87113281 -17.578125 28.8671875 C-14 29 -14 29 -10.6953125 29.56640625 C-7.658568 30.05492602 -6.53075707 29.65472578 -4 28 C-3.72528897 21.40693517 -4.88310984 15.90391443 -7.25 9.75 C-8 7 -8 7 -7.3125 4.8125 C-3.82758621 0 -3.82758621 0 0 0 Z M-27 36 C-27.33 39.63 -27.66 43.26 -28 47 C-28.99 47.495 -28.99 47.495 -30 48 C-30.43083835 49.99108405 -30.43083835 49.99108405 -30.5625 52.3125 C-30.75476948 54.68643953 -30.92662792 56.77021798 -31.65234375 59.04296875 C-32.14927277 61.0340932 -32.14927277 61.0340932 -31.4375 63.08203125 C-29.38914453 65.81502727 -27.16520933 66.48152481 -24 67.6875 C-22.39125 68.31205078 -22.39125 68.31205078 -20.75 68.94921875 C-19.38875 69.46935547 -19.38875 69.46935547 -18 70 C-17.34 70.33 -16.68 70.66 -16 71 C-9.30947009 60.75575469 -9.30947009 60.75575469 -7 49 C-6.34 48.67 -5.68 48.34 -5 48 C-5 46.02 -5 44.04 -5 42 C-4.34 41.67 -3.68 41.34 -3 41 C-3.33 39.35 -3.66 37.7 -4 36 C-11.59 36 -19.18 36 -27 36 Z M1 54 C2 56 2 56 2 56 Z M-34 70 C-34.391875 70.78375 -34.78375 71.5675 -35.1875 72.375 C-35.46207031 72.92027344 -35.73664063 73.46554688 -36.01953125 74.02734375 C-36.73749319 75.47184885 -37.44124898 76.92343858 -38.13671875 78.37890625 C-40.690859 83.65638846 -43.44884972 88.33277392 -47 93 C-38.55962485 93 -29.50475863 86.02210592 -23.359375 80.53515625 C-21.75866952 78.92963131 -21.75866952 78.92963131 -21 76 C-22.41328129 75.18162558 -23.83078346 74.37053781 -25.25 73.5625 C-26.03890625 73.11003906 -26.8278125 72.65757812 -27.640625 72.19140625 C-29.78833468 71.10688398 -31.65205061 70.46851284 -34 70 Z " fill="#E5A312" transform="translate(232,142)"/>
<path d="M0 0 C0.33 0.66 0.66 1.32 1 2 C1.66 2 2.32 2 3 2 C3.0721875 2.97582031 3.144375 3.95164063 3.21875 4.95703125 C3.90351481 9.74676824 6.14001134 13.52646737 8.5 17.6875 C9.32684034 19.16838898 10.14990122 20.65139596 10.96875 22.13671875 C11.33419922 22.78342529 11.69964844 23.43013184 12.07617188 24.09643555 C13.02843889 26.05859885 13.49934743 27.88348601 14 30 C14.495 31.134375 14.99 32.26875 15.5 33.4375 C16.73921944 36.38064616 17.52538482 38.86753978 18 42 C18.33 41.67 18.66 41.34 19 41 C24.8764486 40.40433659 29.67019427 40.93298783 35.0625 43.28125 C37.14066931 44.05218378 38.92085087 44.27051901 41.125 44.4375 C45.50024466 45.07261616 47.45889297 46.43834811 51 49 C52.03125 49.391875 53.0625 49.78375 54.125 50.1875 C61.3862923 53.11151032 68.86162428 59.19781498 74 65 C73.92166804 67.58495473 73.19394053 68.73217737 71.6875 70.8125 C70 72 70 72 68.2578125 71.83984375 C65.1104619 70.66911645 62.83744242 68.80464085 60.1875 66.75 C59.12014535 65.93183005 58.05243868 65.11411914 56.984375 64.296875 C55.99953125 63.53890625 55.0146875 62.7809375 54 62 C49.31949181 58.43351706 49.31949181 58.43351706 44 56 C44.30292969 56.53367188 44.60585937 57.06734375 44.91796875 57.6171875 C47.26539866 61.79200132 49.5569784 65.99182977 51.75 70.25 C52.15734375 71.03890625 52.5646875 71.8278125 52.984375 72.640625 C54.03894935 75.09048234 54.57163475 77.37393479 55 80 C56.98 79.67 58.96 79.34 61 79 C61 82.73928499 60.08040398 83.40902253 57.625 86.125 C56.99851562 86.82882813 56.37203125 87.53265625 55.7265625 88.2578125 C53.84127166 90.16016479 52.85149204 90.98739864 50.15234375 91.02734375 C49.05599609 90.98287109 49.05599609 90.98287109 47.9375 90.9375 C43.83212437 90.88503514 40.29259825 91.51853893 36.3203125 92.48046875 C29.02499127 94.11393293 23.14416098 94.24908772 16 92 C16.33 90.68 16.66 89.36 17 88 C17.92941406 87.93941406 18.85882813 87.87882812 19.81640625 87.81640625 C32.5670045 87.08498461 32.5670045 87.08498461 44.6875 83.4375 C45.780625 82.963125 46.87375 82.48875 48 82 C47.4506997 76.91647541 44.98556061 73.12430241 42.4375 68.8125 C41.59906849 67.38373128 40.76424466 65.9528374 39.93359375 64.51953125 C39.56290771 63.89151611 39.19222168 63.26350098 38.81030273 62.61645508 C38 61 38 61 38 59 C37.43152344 59.13277344 36.86304688 59.26554687 36.27734375 59.40234375 C30.64894346 60.68964064 25.05138626 61.64518764 19.3125 62.3125 C16.35803309 63.19085503 14.99802439 64.705972 13 67 C10.36620292 63.34666857 8.53115106 60.51478398 8 56 C7.34 56 6.68 56 6 56 C6 55.01 6 54.02 6 53 C5.34 53 4.68 53 4 53 C-0.42857143 45.57142857 -0.42857143 45.57142857 -1 42 C-1.66 42 -2.32 42 -3 42 C-3.40025391 40.93845703 -3.40025391 40.93845703 -3.80859375 39.85546875 C-5.04856734 36.88359762 -6.52552487 34.14098741 -8.0625 31.3125 C-10.55281681 26.42253326 -11.70874621 22.42832583 -11.89453125 16.9609375 C-11.8736446 14.92060169 -11.8736446 14.92060169 -13 13 C-13.3125 10.125 -13.3125 10.125 -13 7 C-11 4.625 -11 4.625 -9 3 C-6.06726519 5.93273481 -5.81417842 9.30788349 -4.87890625 13.2734375 C-3.98265501 16.05380803 -2.87989563 17.79020626 -1 20 C-1.165 19.236875 -1.33 18.47375 -1.5 17.6875 C-3.23943662 4.85915493 -3.23943662 4.85915493 0 0 Z M-9 5 C-8 7 -8 7 -8 7 Z M0 22 C1 24 1 24 1 24 Z M1 24 C0.67 24.99 0.34 25.98 0 27 C0.99 27.33 1.98 27.66 3 28 C3.33 27.01 3.66 26.02 4 25 C3.01 24.67 2.02 24.34 1 24 Z M3 28 C4 30 4 30 4 30 Z M5 32 C4.67 32.66 4.34 33.32 4 34 C4.66 34 5.32 34 6 34 C5.67 33.34 5.34 32.68 5 32 Z M12 45 C12.33 46.32 12.66 47.64 13 49 C13.33 48.34 13.66 47.68 14 47 C13.34 46.34 12.68 45.68 12 45 Z M17 45 C17 45.66 17 46.32 17 47 C16.01 47.33 15.02 47.66 14 48 C14.33 50.97 14.66 53.94 15 57 C15.85464844 57 16.70929688 57 17.58984375 57 C21.05989583 57 24.52994792 57 28 57 C28.33 56.34 28.66 55.68 29 55 C29.99 54.67 30.98 54.34 32 54 C30.19096826 51.56173983 28.86215328 50.13629066 25.80078125 49.65234375 C24.21029127 49.55245791 22.61692021 49.48992585 21.0234375 49.46875 C19 49 19 49 17.7265625 46.96875 C17.48679688 46.3190625 17.24703125 45.669375 17 45 Z " fill="#E6A410" transform="translate(144,55)"/>
<path d="M0 0 C3.38352229 1.12784076 3.5540877 1.45742215 5.15625 4.421875 C5.53910156 5.11796875 5.92195313 5.8140625 6.31640625 6.53125 C6.70699219 7.2634375 7.09757812 7.995625 7.5 8.75 C8.28070837 10.18258697 9.06194677 11.61488524 9.84375 13.046875 C10.39905396 14.07107544 10.39905396 14.07107544 10.96557617 15.1159668 C12.87835401 18.59977765 14.93890007 21.91096867 17.1875 25.1875 C19 28 19 28 19 30 C19.99 30 20.98 30 22 30 C22.268125 30.804375 22.53625 31.60875 22.8125 32.4375 C23.204375 33.283125 23.59625 34.12875 24 35 C25.485 35.495 25.485 35.495 27 36 C28.75390625 38.03125 28.75390625 38.03125 30.5625 40.5 C32.831494 43.7783147 32.831494 43.7783147 36 46 C36 46.66 36 47.32 36 48 C36.66 48 37.32 48 38 48 C39.5078125 49.6796875 39.5078125 49.6796875 41.125 51.875 C41.66382813 52.59429687 42.20265625 53.31359375 42.7578125 54.0546875 C44 56 44 56 44 58 C44.99 58.495 44.99 58.495 46 59 C48.44182094 61.92620389 50.21243918 65.08116836 52 68.4375 C53.49580951 71.2382475 54.98621197 73.97826471 56.6875 76.66015625 C58 79 58 79 58 82 C58.99 82.495 58.99 82.495 60 83 C60.91437256 85.74311768 61.35658981 88.0796393 61.6875 90.9375 C61.84798828 92.21947266 61.84798828 92.21947266 62.01171875 93.52734375 C61.99878939 96.25543796 61.39835061 97.69084631 60 100 C57.03595495 97.19195732 54.55500981 94.81684226 53 91 C52.34 91 51.68 91 51 91 C50.67 89.35 50.34 87.7 50 86 C49.34 86 48.68 86 48 86 C48 85.34 48 84.68 48 84 C47.01 83.67 46.02 83.34 45 83 C45 82.34 45 81.68 45 81 C44.443125 80.773125 43.88625 80.54625 43.3125 80.3125 C38.22902572 77.42728487 34.96489112 72.94148519 32 68 C32 67.34 32 66.68 32 66 C31.01 66 30.02 66 29 66 C28.7525 65.21625 28.505 64.4325 28.25 63.625 C26.77676237 60.53120098 25.95856269 60.43445464 23 59 C21.97862543 57.34634594 20.98387706 55.67623498 20 54 C18.91763391 52.71054856 17.8108468 51.44141123 16.6875 50.1875 C3.57920631 35.47523789 3.57920631 35.47523789 2 26 C1.53961102 24.53563024 1.05821594 23.07779128 0.5625 21.625 C0.30082031 20.84640625 0.03914063 20.0678125 -0.23046875 19.265625 C-0.898045 17.30017207 -1.57333071 15.33734093 -2.25 13.375 C-3.10571776 9.52427008 -2.883594 6.82890732 -2 3 C-1.34 2.01 -0.68 1.02 0 0 Z M31 44 C32 47 32 47 32 47 Z M36 56 C37 58 37 58 37 58 Z M52 72 C53 74 53 74 53 74 Z M56 82 C57 85 57 85 57 85 Z " fill="#E5A411" transform="translate(97,94)"/>
<path d="M0 0 C1.83984375 0.20703125 1.83984375 0.20703125 4 1 C5.37890625 3.07421875 5.37890625 3.07421875 6.5625 5.6875 C6.95566406 6.53699219 7.34882812 7.38648437 7.75390625 8.26171875 C8.16511719 9.16535156 8.57632813 10.06898437 9 11 C12.89065913 19.23272069 18.42251036 26.35276041 24.4140625 33.171875 C26.44734448 35.51565817 28.41580079 37.90646588 30.375 40.3125 C31.06335938 41.15425781 31.75171875 41.99601562 32.4609375 42.86328125 C34 45 34 45 34 47 C34.66 47 35.32 47 36 47 C39 51.38461538 39 51.38461538 39 54 C39.66 54 40.32 54 41 54 C41.31453125 54.64066406 41.6290625 55.28132813 41.953125 55.94140625 C44.89667817 61.8906138 44.89667817 61.8906138 48.125 67.6875 C53.52480418 77.22715405 53.52480418 77.22715405 53 83 C53.33 83 53.66 83 54 83 C54.20140476 86.62528568 53.85776765 88.86501708 52 92 C48.38378043 90.79459348 47.93014305 89.7744972 45.9375 86.625 C45.43089844 85.83351563 44.92429688 85.04203125 44.40234375 84.2265625 C43.93957031 83.49179688 43.47679687 82.75703125 43 82 C42.34 81.01 41.68 80.02 41 79 C41.33 78.34 41.66 77.68 42 77 C41.4225 76.95875 40.845 76.9175 40.25 76.875 C36.8084709 75.53662757 35.78385301 73.13712081 34 70 C33.835 69.2575 33.67 68.515 33.5 67.75 C33.2525 66.88375 33.2525 66.88375 33 66 C32.43925781 65.74605469 31.87851563 65.49210937 31.30078125 65.23046875 C28.17528328 63.55893758 26.03543556 61.15971248 23.6875 58.5625 C23.2025708 58.02898926 22.7176416 57.49547852 22.21801758 56.94580078 C17.82692959 52.00190161 14.34511004 46.69845379 11 41 C10.46632813 40.16726562 9.93265625 39.33453125 9.3828125 38.4765625 C4.58495499 30.9097922 0.56461063 23.14317684 1 14 C0.34742127 12.327767 -0.31867549 10.66072849 -1 9 C-1.23567724 5.77907767 -0.91578884 3.09078735 0 0 Z " fill="#E6A411" transform="translate(106,77)"/>
<path d="M0 0 C0.33 0.66 0.66 1.32 1 2 C1.66 2 2.32 2 3 2 C3.72703125 3.52367188 3.72703125 3.52367188 4.46875 5.078125 C8.28303719 12.95145108 12.26181709 20.30299738 17.3359375 27.44921875 C18.94126038 29.90996016 20.015414 32.24017562 21 35 C21.66 35 22.32 35 23 35 C24.4606285 37.64738916 25 38.89448334 25 42 C25.66 42.33 26.32 42.66 27 43 C30.77177426 47.51866025 35 52.98047248 35 59 C35.99 59.495 35.99 59.495 37 60 C40.06172664 64.71034867 41.07232043 69.48070366 40 75 C38.4765625 76.76953125 38.4765625 76.76953125 37 78 C36.01216806 76.92456217 35.03506057 75.83926783 34.0625 74.75 C33.51722656 74.14671875 32.97195312 73.5434375 32.41015625 72.921875 C30.93787201 70.91532695 30.42470811 69.42997551 30 67 C29.34 67 28.68 67 28 67 C26.97684783 65.34744518 25.98193384 63.67737405 25 62 C23.50181155 60.18935513 21.97965317 58.39834911 20.4375 56.625 C15.56141522 50.79729222 15.56141522 50.79729222 14.6875 46.9375 C14.460625 45.968125 14.23375 44.99875 14 44 C13.39414063 43.72285156 12.78828125 43.44570312 12.1640625 43.16015625 C9.14317111 41.5406531 8.27765316 39.4988 6.6875 36.5 C6.15511719 35.5203125 5.62273437 34.540625 5.07421875 33.53125 C4.54248047 32.27828125 4.54248047 32.27828125 4 31 C4.33 30.34 4.66 29.68 5 29 C4.01 28.67 3.02 28.34 2 28 C-1.08993837 22.20306435 -1.65940591 15.45000059 -2 9 C-2.04125 8.30132812 -2.0825 7.60265625 -2.125 6.8828125 C-2.1875 5 -2.1875 5 -2 2 C-1.34 1.34 -0.68 0.68 0 0 Z M1 22 C2 24 2 24 2 24 Z M22 45 C23 47 23 47 23 47 Z M23 57 C23 57.33 23 57.66 23 58 C24.98 58 26.96 58 29 58 C29 57.67 29 57.34 29 57 C27.02 57 25.04 57 23 57 Z " fill="#E6A411" transform="translate(120,65)"/>
<path d="M0 0 C1.93166016 0.01740234 1.93166016 0.01740234 3.90234375 0.03515625 C5.19269531 0.04417969 6.48304688 0.05320313 7.8125 0.0625 C8.81152344 0.07410156 9.81054688 0.08570313 10.83984375 0.09765625 C10.50984375 1.74765625 10.17984375 3.39765625 9.83984375 5.09765625 C4.88984375 5.09765625 -0.06015625 5.09765625 -5.16015625 5.09765625 C-3.91599555 0.12101346 -3.91599555 0.12101346 0 0 Z " fill="#E7A213" transform="translate(165.16015625,170.90234375)"/>
<path d="M0 0 C0.99 0.33 1.98 0.66 3 1 C2.67 1.66 2.34 2.32 2 3 C3.32 3.66 4.64 4.32 6 5 C5.4225 5.0825 4.845 5.165 4.25 5.25 C1.3840696 6.20531013 0.0009236 7.78469173 -2 10 C-2.99 8.68 -3.98 7.36 -5 6 C-4.34 4.68 -3.68 3.36 -3 2 C-2.01 2 -1.02 2 0 2 C0 1.34 0 0.68 0 0 Z " fill="#E9AD15" transform="translate(159,112)"/>
<path d="M0 0 C0.99 0.33 1.98 0.66 3 1 C2.67 4.63 2.34 8.26 2 12 C1.34 12 0.68 12 0 12 C-0.33 11.01 -0.66 10.02 -1 9 C-1.66 8.67 -2.32 8.34 -3 8 C-3 8.66 -3 9.32 -3 10 C-3.66 9.67 -4.32 9.34 -5 9 C-3.7508258 5.54074837 -2.32472205 2.85306797 0 0 Z " fill="#5F0915" transform="translate(203,72)"/>
<path d="M0 0 C2 2 2 2 2.375 5.3125 C1.94805086 9.51083317 0.88994071 11.01974864 -2 14 C-2.05410687 12.22950311 -2.09284119 10.45853151 -2.125 8.6875 C-2.14820313 7.70136719 -2.17140625 6.71523438 -2.1953125 5.69921875 C-2 3 -2 3 0 0 Z " fill="#E1A81C" transform="translate(144,55)"/>
<path d="M0 0 C2.17975966 3.26963949 2.36904422 4.21729678 2 8 C1 10.3125 1 10.3125 0 12 C-0.99 11.67 -1.98 11.34 -3 11 C-3.33 10.01 -3.66 9.02 -4 8 C-3.01 8 -2.02 8 -1 8 C-1.020625 6.865625 -1.04125 5.73125 -1.0625 4.5625 C-1 1 -1 1 0 0 Z " fill="#EDA519" transform="translate(158,157)"/>
<path d="M0 0 C2.31 0 4.62 0 7 0 C5.68 1.65 4.36 3.3 3 5 C1.68 4.67 0.36 4.34 -1 4 C-0.67 2.68 -0.34 1.36 0 0 Z " fill="#EEA918" transform="translate(161,143)"/>
<path d="M0 0 C0.33 0.66 0.66 1.32 1 2 C-0.76227632 5.61730402 -2.64326421 7.80075931 -6 10 C-6.66 9.67 -7.32 9.34 -8 9 C-5.36 6.03 -2.72 3.06 0 0 Z " fill="#6A1003" transform="translate(206,135)"/>
<path d="M0 0 C1.98 0.495 1.98 0.495 4 1 C3.67 2.65 3.34 4.3 3 6 C1.68 5.67 0.36 5.34 -1 5 C-0.67 3.35 -0.34 1.7 0 0 Z " fill="#640A07" transform="translate(159,240)"/>
<path d="M0 0 C1.65 0 3.3 0 5 0 C5 1.98 5 3.96 5 6 C3.35 5.67 1.7 5.34 0 5 C0 3.35 0 1.7 0 0 Z " fill="#EAA61B" transform="translate(170,110)"/>
<path d="M0 0 C0.99 0.33 1.98 0.66 3 1 C2.67 1.66 2.34 2.32 2 3 C3.32 3.66 4.64 4.32 6 5 C5.38125 5.12375 4.7625 5.2475 4.125 5.375 C1.80879168 5.87197356 1.80879168 5.87197356 0 8 C0 5.36 0 2.72 0 0 Z " fill="#EFB52B" transform="translate(159,112)"/>
<path d="M0 0 C2.97 0.33 5.94 0.66 9 1 C8.01 1.33 7.02 1.66 6 2 C6 2.99 6 3.98 6 5 C5.01 4.67 4.02 4.34 3 4 C3 3.34 3 2.68 3 2 C2.01 1.67 1.02 1.34 0 1 C0 0.67 0 0.34 0 0 Z " fill="#EAAF23" transform="translate(139,173)"/>
<path d="M0 0 C0.33 0.99 0.66 1.98 1 3 C-0.65 4.32 -2.3 5.64 -4 7 C-4 4 -4 4 -2 1.8125 C-1.34 1.214375 -0.68 0.61625 0 0 Z " fill="#DB8E23" transform="translate(204,171)"/>
<path d="M0 0 C0.66 0.33 1.32 0.66 2 1 C1.67 2.65 1.34 4.3 1 6 C0.01 5.67 -0.98 5.34 -2 5 C-1.125 1.125 -1.125 1.125 0 0 Z " fill="#DF9D2C" transform="translate(162,198)"/>
<path d="M0 0 C0.99 0.33 1.98 0.66 3 1 C1.02 3.97 1.02 3.97 -1 7 C-1.625 5.1875 -1.625 5.1875 -2 3 C-1.34 2.01 -0.68 1.02 0 0 Z " fill="#DF9724" transform="translate(203,134)"/>
<path d="M0 0 C2.31 0 4.62 0 7 0 C7 0.33 7 0.66 7 1 C4.69 1 2.38 1 0 1 C0 0.67 0 0.34 0 0 Z " fill="#EAAF31" transform="translate(162,177)"/>
<path d="M0 0 C4 1 4 1 4 1 Z " fill="#650407" transform="translate(68,271)"/>
<path d="M0 0 C4 1 4 1 4 1 Z " fill="#690008" transform="translate(229,257)"/>
<path d="" fill="#F4A512" transform="translate(0,0)"/>
<path d="M0 0 C3 1 3 1 3 1 Z " fill="#E3B135" transform="translate(162,149)"/>
<path d="" fill="#490708" transform="translate(0,0)"/>
<path d="" fill="#51070F" transform="translate(0,0)"/>
<path d="" fill="#4D0303" transform="translate(0,0)"/>
<path d="" fill="#61060A" transform="translate(0,0)"/>
<path d="M0 0 C2 1 2 1 2 1 Z " fill="#F5AD05" transform="translate(171,116)"/>
<path d="M0 0 C2 1 2 1 2 1 Z " fill="#F0BC44" transform="translate(181,98)"/>
<path d="" fill="#E5A02F" transform="translate(0,0)"/>
<path d="" fill="#E3A436" transform="translate(0,0)"/>
<path d="" fill="#500603" transform="translate(0,0)"/>
<path d="" fill="#63030B" transform="translate(0,0)"/>
<path d="" fill="#5D0C17" transform="translate(0,0)"/>
<path d="" fill="#3C0702" transform="translate(0,0)"/>
<path d="" fill="#400406" transform="translate(0,0)"/>
<path d="" fill="#450709" transform="translate(0,0)"/>
<path d="" fill="#5A070C" transform="translate(0,0)"/>
<path d="" fill="#5E0E10" transform="translate(0,0)"/>
<path d="" fill="#6C090F" transform="translate(0,0)"/>
<path d="" fill="#5A0609" transform="translate(0,0)"/>
<path d="" fill="#540B0A" transform="translate(0,0)"/>
<path d="" fill="#EAAE33" transform="translate(0,0)"/>
<path d="" fill="#DD8E1B" transform="translate(0,0)"/>
<path d="" fill="#F3B922" transform="translate(0,0)"/>
<path d="" fill="#DCA924" transform="translate(0,0)"/>
<path d="" fill="#F7A800" transform="translate(0,0)"/>
<path d="" fill="#F19E1A" transform="translate(0,0)"/>
<path d="" fill="#580005" transform="translate(0,0)"/>
<path d="" fill="#F6A60B" transform="translate(0,0)"/>
<path d="" fill="#D7AB43" transform="translate(0,0)"/>
<path d="" fill="#EE8802" transform="translate(0,0)"/>
<path d="" fill="#EBAB21" transform="translate(0,0)"/>
<path d="" fill="#ED8E00" transform="translate(0,0)"/>
<path d="" fill="#F8BC43" transform="translate(0,0)"/>
<path d="" fill="#120000" transform="translate(0,0)"/>
<path d="" fill="#EDAE38" transform="translate(0,0)"/>
<path d="" fill="#510307" transform="translate(0,0)"/>
</svg>
